<?xml version="1.0" encoding="utf-8"?>
<!-- Svg Vector Icons : http://www.onlinewebfonts.com/icon -->
<!DOCTYPE svg PUBLIC "-//W3C//DTD SVG 1.1//EN" "http://www.w3.org/Graphics/SVG/1.1/DTD/svg11.dtd">
<svg version="1.1" xmlns="http://www.w3.org/2000/svg" xmlns:xlink="http://www.w3.org/1999/xlink" x="0px" y="0px" viewBox="0 0 1000 1000" enable-background="new 0 0 1000 1000" xml:space="preserve">
<metadata> Svg Vector Icons : http://www.onlinewebfonts.com/icon </metadata>
<g><g><g><path d="M867.5,193.8H745L622.5,71.3h-245L255,193.8H132.5c0,0-122.5,0-122.5,122.5v367.5c0,122.5,122.5,122.5,122.5,122.5s173.4,0,352.7,0c49.4,73.8,133.6,122.5,229.1,122.5c118.7-0.1,219.5-75.2,258.4-180.4c17.1-31.7,17.3-64.6,17.3-64.6s0-245,0-367.5S867.5,193.8,867.5,193.8z M439.8,673.3c-71.9-24.9-123.5-92.9-123.5-173.3c0-101.4,82.2-183.8,183.8-183.8c58.6,0,110.5,27.8,144.1,70.6C526,418,438.8,525.2,438.8,653.1C438.8,660,439.3,666.6,439.8,673.3z M714.4,863.9c-116.4-0.3-210.6-94.4-210.9-210.8c0.3-116.4,94.4-210.6,210.9-210.9c116.3,0.3,210.5,94.4,210.8,210.9C924.9,769.5,830.7,863.6,714.4,863.9z"/><polygon points="745.1,500 683.8,500 683.8,622.5 561.3,622.5 561.3,683.8 683.8,683.8 683.8,806.3 745.1,806.3 745.1,683.8 867.5,683.8 867.5,622.5 745.1,622.5 "/></g></g><g></g><g></g><g></g><g></g><g></g><g></g><g></g><g></g><g></g><g></g><g></g><g></g><g></g><g></g><g></g></g>
</svg>